<?xml version="1.0" standalone="no"?><!DOCTYPE svg PUBLIC "-//W3C//DTD SVG 1.1//EN" "http://www.w3.org/Graphics/SVG/1.1/DTD/svg11.dtd"><svg t="1554193170567" class="icon" style="" viewBox="0 0 1024 1024" version="1.1" xmlns="http://www.w3.org/2000/svg" p-id="2621" xmlns:xlink="http://www.w3.org/1999/xlink" width="200" height="200"><defs><style type="text/css"></style></defs><path d="M901.6 914.4c92-88 103.2-234.4 24.8-335.2-19.2-24-40.8-44-65.6-60-8.8-5.6-16.8-12-23.2-20-6.4-8-12-16.8-16-26.4-10.4-27.2-26.4-52-47.2-75.2C689.6 303.2 544 288 440.8 363.2c-120 86.4-140 222.4-95.2 406.4 12 49.6 20 121.6 20 123.2 1.6 0.8 71.2 20.8 117.6 41.6 174.4 77.6 312 81.6 418.4-20z" fill="#995076" p-id="2622"></path><path d="M901.6 914.4c33.6-32 56-71.2 67.2-113.6 6.4-24.8 0-60-12-98.4-12.8-40.8-70.4-40.8-84 0 0 0.8 0 0.8-0.8 1.6-6.4 20-16 39.2-28 56.8-5.6 8.8-18.4 9.6-25.6 0.8l-18.4-22.4c-8-9.6-23.2-12.8-33.6-4.8-11.2 8-12.8 24-4 34.4l24.8 29.6c6.4 7.2 4 18.4-4 24-6.4 4-15.2 2.4-20-3.2L636.8 668.8c-8-9.6-23.2-12.8-33.6-4.8-11.2 8-12.8 24-4 34.4l94.4 112.8c10.4 12-1.6 29.6-16.8 25.6-24-7.2-46.4-21.6-64-42.4L472 625.6c-23.2-28-60.8-42.4-96-34.4-21.6 4.8-41.6 17.6-51.2 46.4 2.4 40.8 9.6 84.8 20.8 131.2 12 49.6 20 121.6 20 123.2 1.6 0.8 71.2 20.8 117.6 41.6 148.8 66.4 271.2 78.4 370.4 16 11.2-7.2 20.8-14.4 30.4-22.4 6.4-3.2 12-8 17.6-12.8z" fill="#72324D" p-id="2623"></path><path d="M711.2 428.8c-4.8 0-10.4-1.6-14.4-4.8-34.4-26.4-78.4-38.4-122.4-36-12.8 0.8-24.8-8.8-25.6-22.4-0.8-13.6 8.8-24.8 22.4-25.6 56-4 110.4 12 154.4 44.8 10.4 8 12.8 23.2 4.8 33.6-4.8 6.4-12 10.4-19.2 10.4zM506.4 404c-6.4 0-12.8-2.4-16.8-7.2s-7.2-10.4-7.2-16.8c0-1.6 0-3.2 0.8-4.8s0.8-3.2 1.6-4.8c0.8-1.6 1.6-3.2 2.4-4 0.8-1.6 1.6-2.4 3.2-4 8.8-8.8 24.8-8.8 33.6 0 0.8 0.8 2.4 2.4 3.2 4 0.8 1.6 1.6 2.4 2.4 4 0.8 1.6 0.8 3.2 1.6 4.8s0.8 3.2 0.8 4.8c0 6.4-2.4 12.8-7.2 16.8s-12 7.2-18.4 7.2z" fill="#FFFFFF" p-id="2624"></path><path d="M324.8 952c-7.2 0-13.6-3.2-18.4-8.8-8.8-10.4-7.2-25.6 3.2-33.6 34.4-28.8 80-34.4 132-17.6 12.8 4 19.2 17.6 15.2 30.4-4 12.8-17.6 19.2-30.4 15.2-35.2-12-64-8.8-85.6 8.8-5.6 4-11.2 5.6-16 5.6z" fill="#444B54" p-id="2625"></path><path d="M319.2 1008.8h-2.4c-13.6-0.8-23.2-12.8-21.6-26.4l4.8-56c0.8-13.6 12.8-23.2 26.4-21.6 13.6 0.8 23.2 12.8 21.6 26.4l-4.8 56c-0.8 12-11.2 21.6-24 21.6zM958.4 658.4c-8.8 0-17.6-5.6-21.6-14.4-23.2-50.4-51.2-93.6-93.6-144.8-35.2-42.4-72.8-80-102.4-102.4-10.4-8-12.8-23.2-4.8-33.6 8-10.4 23.2-12.8 33.6-4.8 32 24.8 72.8 64.8 110.4 109.6 45.6 54.4 76 100.8 100.8 155.2 5.6 12 0 26.4-12 32-3.2 2.4-6.4 3.2-10.4 3.2z" fill="#444B54" p-id="2626"></path><path d="M927.2 633.6h-6.4c-36.8-3.2-81.6-36.8-129.6-95.2-8-10.4-7.2-25.6 3.2-33.6s25.6-7.2 33.6 3.2c59.2 72 93.6 80 100 78.4 10.4-8 24.8-6.4 33.6 3.2 8.8 10.4 7.2 25.6-3.2 33.6-5.6 4.8-16 10.4-31.2 10.4z" fill="#444B54" p-id="2627"></path><path d="M809.6 546.4c-11.2 0-20.8-7.2-23.2-18.4-3.2-12.8 4.8-25.6 17.6-28.8l174.4-41.6c12.8-3.2 25.6 4.8 28.8 17.6 3.2 12.8-4.8 25.6-17.6 28.8l-174.4 41.6c-1.6 0.8-3.2 0.8-5.6 0.8z" fill="#444B54" p-id="2628"></path><path d="M809.6 546.4c-7.2 0-13.6-3.2-18.4-8.8-8.8-10.4-7.2-25.6 3.2-33.6l172-144c10.4-8.8 25.6-7.2 33.6 3.2 8.8 10.4 7.2 25.6-3.2 33.6l-172 144c-4 4-9.6 5.6-15.2 5.6z" fill="#444B54" p-id="2629"></path><path d="M809.6 546.4c-3.2 0-6.4-0.8-9.6-2.4-12-5.6-17.6-19.2-12.8-31.2l71.2-164c5.6-12 19.2-17.6 31.2-12.8 12 5.6 17.6 19.2 12.8 31.2L832 532c-4 8.8-12.8 14.4-22.4 14.4z" fill="#444B54" p-id="2630"></path><path d="M708.8 1016c-68 0-145.6-20-234.4-59.2-13.6-5.6-29.6-12.8-49.6-19.2-12.8-4.8-19.2-18.4-14.4-30.4 4.8-12.8 18.4-19.2 30.4-14.4 20.8 7.2 38.4 14.4 52.8 20.8 174.4 77.6 298.4 72 391.2-16 83.2-79.2 92.8-212.8 22.4-303.2-16.8-21.6-36.8-40-59.2-53.6-10.4-6.4-20-15.2-28.8-24.8-8-9.6-14.4-20.8-19.2-32.8-10.4-24.8-24-48-42.4-68-76.8-84.8-209.6-99.2-302.4-32C352 458.4 324.8 580 369.6 764.8c3.2 12.8 6.4 28 8.8 44.8 2.4 12.8-6.4 25.6-19.2 28-12.8 2.4-25.6-6.4-28-19.2-2.4-16-5.6-29.6-8.8-41.6-50.4-206.4-17.6-344 104-432 112-81.6 273.6-64.8 366.4 38.4 22.4 24.8 39.2 52 51.2 82.4 3.2 7.2 7.2 13.6 12 20 4.8 5.6 10.4 11.2 17.6 15.2 27.2 17.6 52 39.2 72 65.6 84.8 110.4 72.8 271.2-27.2 367.2-59.2 54.4-128 82.4-209.6 82.4z" fill="#444B54" p-id="2631"></path><path d="M905.6 1016h-656c-13.6 0-24-10.4-24-24s10.4-24 24-24h656c13.6 0 24 10.4 24 24s-10.4 24-24 24zM145.6 1016c-1.6 0-3.2 0-4.8-0.8s-3.2-0.8-4.8-1.6c-1.6-0.8-3.2-1.6-4-2.4-1.6-0.8-2.4-1.6-4-3.2-4.8-4.8-7.2-10.4-7.2-16.8 0-1.6 0-3.2 0.8-4.8 0-1.6 0.8-3.2 1.6-4.8 0.8-1.6 1.6-2.4 2.4-4 0.8-1.6 1.6-2.4 3.2-4 8.8-8.8 24.8-8.8 33.6 0 0.8 0.8 2.4 2.4 3.2 4 0.8 1.6 1.6 2.4 2.4 4 0.8 1.6 0.8 3.2 1.6 4.8 0 1.6 0.8 3.2 0.8 4.8 0 6.4-2.4 12.8-7.2 16.8-4.8 5.6-11.2 8-17.6 8z" fill="#444B54" p-id="2632"></path></svg>